Coordinates
version=1
nRows=17
nColumns=40
inDegrees=yes

Units are S.I. units (second, meters, Newtons, ...)
Angles are in degrees.

endheader
time	pelvis_tilt	pelvis_list	pelvis_rotation	pelvis_tx	pelvis_ty	pelvis_tz	hip_flexion_r	hip_adduction_r	hip_rotation_r	knee_angle_r	knee_angle_r_beta	ankle_angle_r	subtalar_angle_r	mtp_angle_r	hip_flexion_l	hip_adduction_l	hip_rotation_l	knee_angle_l	knee_angle_l_beta	ankle_angle_l	subtalar_angle_l	mtp_angle_l	lumbar_extension	lumbar_bending	lumbar_rotation	arm_flex_r	arm_add_r	arm_rot_r	elbow_flex_r	pro_sup_r	wrist_flex_r	wrist_dev_r	arm_flex_l	arm_add_l	arm_rot_l	elbow_flex_l	pro_sup_l	wrist_flex_l	wrist_dev_l
     35.34000000	     -3.03561216	     -4.87201641	      6.11984058	      0.93669918	      0.93314476	      0.49283945	      5.91436961	      4.82790261	    -17.74021019	     11.13090767	     11.13090767	     10.81430112	      0.85723452	     -5.78975568	     33.36275527	     -9.59389112	      1.50444623	     46.16183220	     46.16183220	     10.71309485	    -17.93306350	     13.01300135	     -8.99870244	      6.65589649	      4.93842221	     28.19378590	    -17.42114246	     -7.07218332	     58.01385657	     45.30696073	      0.00000000	      0.00000000	     -0.97588561	     -6.68757585	      0.90261613	     24.47776835	     45.32958409	      0.00000000	      0.00000000
     35.35257143	     -3.31659119	     -4.96970542	      6.39417688	      0.93478277	      0.93240577	      0.49281260	      5.71362969	      5.00128429	    -17.84641244	     10.89998176	     10.89998176	     11.04805366	      0.74139417	     -5.88702376	     33.92921973	     -9.22170845	      1.65399385	     42.27780416	     42.27780416	     10.94605647	    -17.11875851	     13.32690142	     -8.78500538	      6.70455381	      5.31506793	     30.16818797	    -18.09400973	     -7.34888534	     59.05066775	     45.29301086	      0.00000000	      0.00000000	     -2.05275427	     -6.61837974	      0.98557330	     24.07539934	     45.29588120	      0.00000000	      0.00000000
     35.36514286	     -3.36785118	     -4.85279572	      6.70777913	      0.93323734	      0.93209209	      0.49253813	      4.99720535	      5.01938457	    -18.02059450	     10.24728699	     10.24728699	     11.17623846	      0.92515752	     -6.09848550	     33.86921375	     -8.53328418	      1.89873737	     37.91241021	     37.91241021	     10.66166091	    -16.71892337	     12.83451867	     -8.92187121	      6.52998970	      4.84528161	     31.96481279	    -17.87036683	     -7.50431818	     62.03373544	     45.20932427	      0.00000000	      0.00000000	     -3.48091424	     -6.73490723	      1.42523571	     23.65581872	     45.19079372	      0.00000000	      0.00000000
     35.37771429	     -3.49905961	     -4.87065151	      6.97206691	      0.93175674	      0.93135756	      0.49230027	      4.58413051	      5.09803777	    -18.25021664	     10.00151287	     10.00151287	     11.38317994	      1.09586928	     -6.54334735	     33.78905170	     -8.11198741	      1.88202719	     33.43229330	     33.43229330	      9.77976672	    -15.70872249	     10.42554870	     -8.96466754	      6.49767358	      5.40515483	     32.80728365	    -18.73230232	     -7.91577404	     65.61136780	     45.13067068	      0.00000000	      0.00000000	     -4.63294591	     -6.92880201	      2.68738123	     23.99010951	     44.95120691	      0.00000000	      0.00000000
     35.39028571	     -3.66924343	     -4.94338493	      7.25298926	      0.93039036	      0.93044602	      0.49192684	      4.22348863	      5.22963210	    -18.43082981	      9.78267348	      9.78267348	     11.69808020	      1.17553139	     -6.59941154	     33.80411073	     -7.71283391	      1.91814559	     29.28714284	     29.28714284	      9.81090024	    -14.10345592	     10.25376005	     -8.85729766	      6.53115653	      5.24132377	     34.64649838	    -18.76535294	     -8.15909009	     67.30202982	     45.10182304	      0.00000000	      0.00000000	     -5.84711756	     -6.96176887	      3.20548985	     23.63498695	     44.84962881	      0.00000000	      0.00000000
     35.40285714	     -3.78139519	     -5.00332812	      7.50866282	      0.92914304	      0.92954239	      0.49151388	      3.86537732	      5.33307128	    -18.56772523	      9.72044050	      9.72044050	     12.06962666	      1.19285736	     -6.68573801	     33.69986477	     -7.36260511	      1.73425093	     25.32659297	     25.32659297	      9.90637028	    -12.10480504	     10.42197937	     -8.80489161	      6.53086056	      5.20081304	     36.39379987	    -18.93526670	     -8.34542910	     68.79789895	     45.07115995	      0.00000000	      0.00000000	     -6.96865412	     -6.98525218	      3.40130725	     23.35841639	     44.80020408	      0.00000000	      0.00000000
     35.41542857	     -3.89376146	     -5.06782152	      7.76702004	      0.92808140	      0.92852996	      0.49089705	      3.50756608	      5.41899072	    -18.75297520	      9.67173025	      9.67173025	     12.47389777	      1.28399671	     -6.72348621	     33.58733591	     -7.02037925	      1.41173598	     21.71710950	     21.71710950	      9.90615290	     -9.93796484	     10.54044311	     -8.72387197	      6.58574132	      5.07543684	     37.98300808	    -18.97185702	     -8.50086596	     70.46520657	     45.03351816	      0.00000000	      0.00000000	     -8.05038750	     -6.95984253	      3.59846026	     23.18864651	     44.75098326	      0.00000000	      0.00000000
     35.42800000	     -4.10284566	     -5.33324881	      8.04885841	      0.92708137	      0.92718987	      0.49017640	      3.31335669	      5.70439257	    -18.94753506	      9.68770158	      9.68770158	     12.85159450	      1.22577301	     -6.80724184	     33.79657784	     -6.81243485	      1.23344809	     18.80770062	     18.80770062	      9.78185179	     -8.11887841	     10.85747790	     -8.44019718	      6.88442368	      5.16168432	     39.60091592	    -19.30947505	     -8.71818389	     71.53944380	     45.01498361	      0.00000000	      0.00000000	     -8.95598402	     -6.86204560	      3.67452390	     22.97988081	     44.72311232	      0.00000000	      0.00000000
     35.44057143	     -4.09001055	     -5.23207742	      8.26672612	      0.92652257	      0.92645317	      0.48931200	      2.79558096	      5.61178527	    -19.04025871	      9.72359351	      9.72359351	     13.32970063	      1.27817564	     -6.78682654	     33.41656820	     -6.38365638	      0.39870833	     15.98530717	     15.98530717	      9.55926232	     -6.00342340	     11.12402116	     -8.47627563	      6.72136607	      4.91198666	     40.88198204	    -19.01636842	     -8.80024239	     73.09488495	     44.97542578	      0.00000000	      0.00000000	     -9.92026084	     -6.83629023	      3.81113566	     22.78901088	     44.68467577	      0.00000000	      0.00000000
     35.45314286	     -4.08034341	     -5.29210858	      8.50149212	      0.92617208	      0.92548854	      0.48834273	      2.29418732	      5.67594427	    -19.29928966	      9.78729565	      9.78729565	     13.96813466	      1.60358149	     -6.36344282	     33.40144403	     -6.14640528	     -0.62665106	     14.30218519	     14.30218519	      9.29873429	     -3.97017088	     10.84939796	     -8.46317092	      6.77965735	      4.68859861	     42.00536679	    -18.83366952	     -9.09646702	     75.24107604	     44.93222420	      0.00000000	      0.00000000	    -10.99664057	     -6.84735042	      4.14488321	     22.98476240	     44.61620093	      0.00000000	      0.00000000
     35.46571429	     -4.11598134	     -5.25974090	      8.70665563	      0.92594000	      0.92459050	      0.48717456	      1.84829748	      5.63181116	    -19.34615258	      9.89021496	      9.89021496	     14.48552294	      1.55481165	     -6.18715577	     33.31700771	     -5.75879606	     -1.41302889	     13.03471441	     13.03471441	      8.80451475	     -2.96525176	     10.90150742	     -8.32992144	      6.70974191	      4.62523532	     43.04053678	    -18.85734996	     -9.32851050	     76.27506159	     44.91747406	      0.00000000	      0.00000000	    -11.77360996	     -6.82245092	      4.34005563	     22.86998506	     44.57563708	      0.00000000	      0.00000000
     35.47828571	     -4.13947011	     -5.28984477	      8.89058299	      0.92598231	      0.92361689	      0.48590178	      1.38873148	      5.63338973	    -19.50615487	     10.04756562	     10.04756562	     15.27769653	      1.82795897	     -5.12423061	     33.34672852	     -5.50317378	     -2.31809315	     12.58373434	     12.58373434	      8.00402996	     -2.23997495	      9.70810616	     -8.16884551	      6.75281666	      4.72177252	     43.81033365	    -18.79534653	     -9.91401015	     77.88769066	     44.91728549	      0.00000000	      0.00000000	    -12.47114619	     -6.86875625	      5.09902864	     23.19417577	     44.46762282	      0.00000000	      0.00000000
     35.49085714	     -4.18150213	     -5.24122158	      9.01976230	      0.92617746	      0.92268716	      0.48451651	      0.88949723	      5.57068441	    -19.46062335	     10.08624231	     10.08624231	     15.68676757	      1.77711904	     -5.14525872	     33.34523368	     -5.17715004	     -2.91518152	     12.68124421	     12.68124421	      7.40026898	     -2.42766631	      9.76614126	     -7.94302148	      6.66580299	      4.71208808	     44.63914248	    -18.88216560	    -10.04676813	     78.39184977	     44.91143821	      0.00000000	      0.00000000	    -12.99196261	     -6.79133838	      5.18240172	     22.99343143	     44.44839158	      0.00000000	      0.00000000
     35.50342857	     -4.19420624	     -5.19618400	      9.11757787	      0.92669316	      0.92169186	      0.48303617	      0.37274378	      5.48542583	    -19.50044035	     10.22795924	     10.22795924	     16.27884822	      1.89096642	     -4.72091093	     33.27685705	     -4.91806238	     -3.42500619	     13.24107266	     13.24107266	      6.36924666	     -3.05582340	      8.75485514	     -7.74774889	      6.62054527	      4.40614471	     45.25180245	    -18.35155250	    -10.32248710	     79.65112718	     44.89466331	      0.00000000	      0.00000000	    -13.60522886	     -6.69794203	      5.50146448	     22.90673569	     44.40336655	      0.00000000	      0.00000000
     35.51600000	     -4.15072514	     -5.06288754	      9.09667639	      0.92752701	      0.92080650	      0.48153752	     -0.28243933	      5.32509583	    -19.36816074	     10.27180694	     10.27180694	     16.71664619	      1.93307051	     -4.68907225	     33.04900726	     -4.69062901	     -3.91774292	     14.16619858	     14.16619858	      5.61372869	     -3.84135929	      8.60990250	     -7.56495351	      6.42807622	      4.55312132	     45.71716649	    -18.43025268	    -10.46504077	     79.99733056	     44.89298591	      0.00000000	      0.00000000	    -13.99438020	     -6.66061719	      5.55265333	     22.81856611	     44.39229638	      0.00000000	      0.00000000
     35.52857143	     -4.12053379	     -5.13396925	      9.10191696	      0.92854607	      0.91958247	      0.47994153	     -0.87520858	      5.35599894	    -19.33140103	     10.39648890	     10.39648890	     17.27114490	      2.14067159	     -4.37456362	     32.98577899	     -4.61971406	     -3.72593375	     15.58073331	     15.58073331	      4.54338196	     -5.39389646	      7.82692363	     -7.32314159	      6.53531823	      4.55697907	     45.97757451	    -18.21067261	    -10.75632925	     80.86754325	     44.88287863	      0.00000000	      0.00000000	    -14.38781982	     -6.58986792	      5.66465583	     22.87335743	     44.37901286	      0.00000000	      0.00000000
     35.54114286	     -4.13043392	     -5.00564853	      8.95221735	      0.92995559	      0.91844635	      0.47829192	     -1.47018108	      5.13184962	    -19.28850707	     10.58043316	     10.58043316	     18.05225186	      2.53061574	     -3.43355302	     32.50479675	     -4.34271273	     -3.37455182	     16.46413948	     16.46413948	      2.86180939	     -7.61102956	      6.31585320	     -7.02224109	      6.34867192	      4.79573107	     45.70777234	    -18.14017574	    -11.35236374	     82.09610473	     44.88123590	      0.00000000	      0.00000000	    -14.70479592	     -6.62533891	      5.84221577	     23.23582795	     44.37968111	      0.00000000	      0.00000000
